<svg version="1.2" xmlns="http://www.w3.org/2000/svg" viewBox="0 0 21 21" width="21" height="21">
	<title>telegram-svg</title>
	<style>
		.s0 { fill: #000000 } 
	</style>
	<path id="Layer" fill-rule="evenodd" class="s0" d="m21 10.5c0 5.8-4.7 10.5-10.5 10.5-5.8 0-10.5-4.7-10.5-10.5 0-5.8 4.7-10.5 10.5-10.5 5.8 0 10.5 4.7 10.5 10.5zm-9.9 5.8l0.8-2.6-3.8-6c-0.2-0.3-0.1-0.5 0.1-0.3l4.4 4.8 2.7 0.2c0-0.2-0.1-0.4-0.3-0.5l-1.2-1.3 2-2.6c0.2-0.5 0.1-0.8-0.5-0.9l-8.1-1.8c-0.7-0.1-1 0.3-0.8 0.8l3.9 10.1c0.2 0.7 0.6 0.7 0.8 0.1z"/>
</svg>