<svg version="1.2" xmlns="http://www.w3.org/2000/svg" viewBox="0 0 65 65" width="65" height="65">
	<title>git-svg</title>
	<style>
		.s0 { fill: #de4c36 } 
	</style>
	<g id="Layer">
		<path id="Layer" class="s0" d="m63.8 35.5l-28.3 28.3c-1.6 1.6-4.3 1.6-5.9 0l-28.4-28.4c-1.6-1.6-1.6-4.3 0-5.9l19.5-19.5 7.4 7.4c-0.8 1.8-0.4 4 1 5.4q0.8 0.8 1.7 1.1v17.9q-0.9 0.3-1.7 1c-1.9 2-1.9 5.1 0 7.1 2 1.9 5.1 1.9 7.1 0 1.9-2 1.9-5.1 0-7.1q-0.6-0.5-1.3-0.9v-17.7l6.7 6.7c-0.8 1.8-0.4 4 1.1 5.5 1.9 1.9 5.1 1.9 7 0 1.9-2 1.9-5.1 0-7.1-1.4-1.4-3.4-1.8-5.1-1.2l-7.2-7.2c0.6-1.7 0.2-3.7-1.2-5.1-1.4-1.4-3.4-1.8-5.1-1.2l-7.5-7.5 5.9-5.9c1.6-1.6 4.3-1.6 5.9 0l28.4 28.4c1.6 1.6 1.6 4.3 0 5.9z"/>
	</g>
</svg>