<svg version="1.2" xmlns="http://www.w3.org/2000/svg" viewBox="0 0 29 65" width="29" height="65">
	<title>gulp-svg</title>
	<style>
		.s0 { fill: #d34a47 } 
		.s1 { fill: #ffffff } 
	</style>
	<g id="Layer">
		<path id="Layer" class="s0" d="m14.5 65c-4.4 0-7.9-0.9-7.9-2l-0.6-10.1-1.9-3.2c0 0 3.8 1.6 10.2 1.6 6.5 0 10.4-1.6 10.4-1.6l-1.7 2.9-0.7 10.4c0 1.1-3.5 2-7.8 2z"/>
		<path id="Layer" class="s0" d="m28.9 16.4c0 1.1-6.4 2.1-14.4 2.1-8 0-14.4-1-14.4-2.1 0-1.1 6.4-2.1 14.4-2.1q1.8 0 3.4 0.1l1.5-6.2 7.6-8.1 1.8 1.6-7.1 7.7-1.3 5.1c5 0.3 8.5 1.1 8.5 1.9z"/>
		<path id="Layer" class="s1" d="m19.7 17.4c0 0-0.3 0.1-1.1 0.1-0.9 0-1.4 0-1.7-0.2 0-0.1-0.1-0.2-0.1-0.3 0-0.1 0.1-0.2 0.3-0.3l0.1 0.2q-0.1 0.1-0.1 0.1c0 0.1 0.8 0.2 1.5 0.2 0.6 0 1.4-0.1 1.4-0.2q0-0.1-0.2-0.1l0.2-0.2c0.1 0.1 0.3 0.2 0.3 0.3 0 0.3-0.4 0.4-0.6 0.4z"/>
		<path id="Layer" class="s0" d="m27.6 1.3c-0.5-0.4-0.8-1-0.6-1.2 0.1-0.2 0.7 0 1.2 0.4 0.5 0.5 0.8 1 0.6 1.2-0.1 0.3-0.7 0.1-1.2-0.4z"/>
		<path id="Layer" class="s0" d="m26.5 36.9l-1.2 11.5c0 0-2.8 2.2-11 2.2-8.2 0-11-2.2-11-2.2l-1-10c2 1 3.5-1 4.4-1.8 0 0.6-1.4 3.6-0.5 3.9 0.9 0.3 1.2-2.2 1.9-4.6 0.7-2.1 1.6-4.4 0.7-4.7-0.8-0.2-1.1 2.1-1.5 2.9-0.6 1.1-3.9 4.8-4.3 2-0.3-2.1 2.1-6.5 3.2-7.6 0.5-0.5 1.4-1 2-0.9 0.8 0.2 0.9 1.7 1.6 1.7 1.7-0.1-0.2-3-1.7-3.1-3.3-0.2-5.4 4.9-6.3 7.5l-1.6-16.1c0 0 1.7 1.6 14.1 1.6 12.4 0 14.4-1.7 14.4-1.7l-2 17.7c-0.7 0.9-2.3 2-3.3 2.1-1.1 0.2 3.1-2.5 2.4-4.4-0.6-1.6-3 0-3.7 0.8 0.2-0.5 0.3-1.1-0.4-1.2-0.6 0-0.6 1.9-1.6 3.1-1 1.2-1.5 1.2-2.5 1.6-1 0.3 1.1-4.5 2.4-7.4 0.2-0.6 0.9-2.3 0.1-2.5-0.7-0.3-1.7 3-2.8 5.6-1 2.6-0.9 3.4-1.3 3.7-0.5 0.6-1.3 0.8-1.5 0.7-1-0.8 1.7-4.6 0.9-5-0.7-0.3-1.7 2.6-2 3.1 0 0-1.8 2.4-2.5 1.9-0.4-0.3 0.2-1.7 0.7-2.9 0.2-0.5 1.1-1.8 0.4-2.1-0.7-0.3-3.6 5.6-1.8 6.3 1.4 0.5 2.5-0.8 3.1-1.7-0.3 2.2 1.8 1.7 2.7 0.9 0.6 1.7 3-0.1 3.6-0.6-0.5 1.9-2.5 5-1.7 5.5 0.9 0.4 2.2-3.4 2.6-4.3 1-2.4 2-4.7 4.1-4.9 1 0.1-2.8 2.5-2.6 4.2 0.2 2 3.5 0.2 4.5-0.8z"/>
	</g>
</svg>